<?xml version="1.0" standalone="no"?>
<!DOCTYPE svg PUBLIC "-//W3C//DTD SVG 20010904//EN"
 "http://www.w3.org/TR/2001/REC-SVG-20010904/DTD/svg10.dtd">
<svg version="1.0" xmlns="http://www.w3.org/2000/svg"
 width="384.000000pt" height="384.000000pt" viewBox="0 0 384.000000 384.000000"
 preserveAspectRatio="xMidYMid meet">
<metadata>
Created by potrace 1.14, written by Peter Selinger 2001-2017
</metadata>
<g transform="translate(0.000000,384.000000) scale(0.100000,-0.100000)"
fill="#000000" stroke="none">
<path d="M2280 3600 l0 -200 40 0 40 0 0 -80 0 -80 -40 0 -40 0 0 -40 0 -40
-360 0 -360 0 0 40 0 40 -120 0 -120 0 0 40 0 40 -120 0 -120 0 0 40 0 40
-120 0 -120 0 0 40 0 40 -120 0 -120 0 0 -80 0 -80 40 0 40 0 0 -40 0 -40 40
0 40 0 0 -40 0 -40 40 0 40 0 0 -40 0 -40 40 0 40 0 0 -40 0 -40 40 0 40 0 0
-40 0 -40 40 0 40 0 0 -40 0 -40 -40 0 -40 0 0 -40 0 -40 -160 0 -160 0 0 40
0 40 -120 0 -120 0 0 40 0 40 -160 0 -160 0 0 -40 0 -40 40 0 40 0 0 -40 0
-40 40 0 40 0 0 -40 0 -40 40 0 40 0 0 -40 0 -40 40 0 40 0 0 -40 0 -40 40 0
40 0 0 -40 0 -40 40 0 40 0 0 -40 0 -40 40 0 40 0 0 -40 0 -40 40 0 40 0 0
-40 0 -40 -80 0 -80 0 0 -40 0 -40 -160 0 -160 0 0 -80 0 -80 40 0 40 0 0 -40
0 -40 40 0 40 0 0 -40 0 -40 40 0 40 0 0 -40 0 -40 40 0 40 0 0 -40 0 -40 40
0 40 0 0 -40 0 -40 -40 0 -40 0 0 -40 0 -40 -120 0 -120 0 0 -40 0 -40 -40 0
-40 0 0 -40 0 -40 -40 0 -40 0 0 -40 0 -40 -40 0 -40 0 0 -40 0 -40 -40 0 -40
0 0 -120 0 -120 40 0 40 0 0 -80 0 -80 40 0 40 0 0 -40 0 -40 40 0 40 0 0 -40
0 -40 40 0 40 0 0 -40 0 -40 40 0 40 0 0 -40 0 -40 40 0 40 0 0 40 0 40 40 0
40 0 0 40 0 40 40 0 40 0 0 -40 0 -40 80 0 80 0 0 -40 0 -40 40 0 40 0 0 40 0
40 80 0 80 0 0 40 0 40 40 0 40 0 0 -80 0 -80 -40 0 -40 0 0 -80 0 -80 -40 0
-40 0 0 -80 0 -80 80 0 80 0 0 40 0 40 80 0 80 0 0 40 0 40 80 0 80 0 0 40 0
40 80 0 80 0 0 40 0 40 80 0 80 0 0 -80 0 -80 40 0 40 0 0 40 0 40 40 0 40 0
0 40 0 40 40 0 40 0 0 40 0 40 80 0 80 0 0 40 0 40 120 0 120 0 0 40 0 40 80
0 80 0 0 -40 0 -40 80 0 80 0 0 -40 0 -40 120 0 120 0 0 40 0 40 40 0 40 0 0
-40 0 -40 40 0 40 0 0 -80 0 -80 40 0 40 0 0 -120 0 -120 40 0 40 0 0 -40 0
-40 40 0 40 0 0 40 0 40 40 0 40 0 0 40 0 40 40 0 40 0 0 120 0 120 40 0 40 0
0 120 0 120 40 0 40 0 0 40 0 40 40 0 40 0 0 80 0 80 -40 0 -40 0 0 80 0 80
-40 0 -40 0 0 40 0 40 -80 0 -80 0 0 40 0 40 -40 0 -40 0 0 40 0 40 -40 0 -40
0 0 40 0 40 -120 0 -120 0 0 -40 0 -40 -40 0 -40 0 0 80 0 80 40 0 40 0 0 80
0 80 40 0 40 0 0 40 0 40 40 0 40 0 0 40 0 40 40 0 40 0 0 80 0 80 -80 0 -80
0 0 160 0 160 40 0 40 0 0 120 0 120 40 0 40 0 0 200 0 200 -40 0 -40 0 0 -40
0 -40 -80 0 -80 0 0 40 0 40 -40 0 -40 0 0 80 0 80 -40 0 -40 0 0 80 0 80 -40
0 -40 0 0 40 0 40 -40 0 -40 0 0 40 0 40 -40 0 -40 0 0 40 0 40 -40 0 -40 0 0
40 0 40 -40 0 -40 0 0 40 0 40 -40 0 -40 0 0 40 0 40 -40 0 -40 0 0 40 0 40
-40 0 -40 0 0 -200z m720 -2320 l0 -40 -40 0 -40 0 0 40 0 40 40 0 40 0 0 -40z
m-1920 -400 l0 -120 -40 0 -40 0 0 -80 0 -80 -40 0 -40 0 0 200 0 200 80 0 80
0 0 -120z"/>
</g>
</svg>
